<?xml version="1.0" standalone="no"?>
<!DOCTYPE svg PUBLIC "-//W3C//DTD SVG 20010904//EN"
 "http://www.w3.org/TR/2001/REC-SVG-20010904/DTD/svg10.dtd">
<svg version="1.0" xmlns="http://www.w3.org/2000/svg"
 width="864.000000pt" height="864.000000pt" viewBox="0 0 864.000000 864.000000"
 preserveAspectRatio="xMidYMid meet">
<metadata>
Created by potrace 1.11, written by Peter Selinger 2001-2013
</metadata>
<g transform="translate(0.000000,864.000000) scale(0.100000,-0.100000)"
fill="#000000" stroke="none">
<path d="M4290 8627 c-9 -7 -23 -28 -32 -47 -9 -19 -235 -692 -502 -1495 -268
-803 -489 -1466 -491 -1473 -2 -7 -5 -16 -6 -20 -1 -4 -31 -92 -67 -197 -35
-104 -65 -194 -67 -200 -2 -9 -6 -22 -22 -62 -3 -10 -7 -21 -8 -25 -2 -5 -3
-9 -5 -10 -1 -2 -3 -10 -5 -19 -3 -15 -310 -941 -322 -969 -6 -16 -9 -24 -17
-55 -3 -11 -37 -111 -75 -223 -38 -111 -70 -206 -71 -210 -2 -4 -4 -11 -6 -17
-2 -5 -58 -174 -124 -375 -67 -201 -123 -372 -126 -380 -3 -8 -5 -16 -5 -17 0
-1 -9 -26 -20 -55 -11 -29 -22 -60 -24 -68 -1 -8 -35 -111 -75 -228 -39 -117
-73 -218 -74 -225 -2 -7 -6 -19 -9 -27 -9 -21 -309 -920 -312 -934 -1 -6 -5
-18 -8 -26 -8 -21 -58 -163 -61 -175 -1 -5 -9 -30 -16 -55 -7 -25 -13 -48 -12
-53 1 -4 -2 -7 -8 -7 -6 0 -9 -3 -8 -7 2 -7 -24 -96 -39 -133 -3 -8 -7 -19 -9
-25 -1 -5 -53 -160 -114 -344 -111 -332 -119 -367 -96 -421 21 -50 103 -60
204 -25 42 15 82 28 87 30 6 1 17 5 25 8 32 13 479 167 483 166 1 0 16 5 32
11 39 16 344 123 460 162 50 16 104 36 120 43 17 7 62 22 100 34 39 12 77 26
85 30 9 5 58 22 110 39 86 28 191 64 230 79 8 4 17 7 20 8 3 0 30 9 60 20 30
11 57 20 60 20 3 1 12 5 20 8 8 3 56 20 105 37 50 16 97 33 105 37 19 8 19 8
55 18 17 4 35 10 40 14 6 3 15 6 20 7 6 1 82 28 170 59 88 31 185 65 217 76
l56 20 64 -21 c34 -11 72 -25 83 -30 11 -4 29 -11 40 -13 11 -3 47 -15 80 -27
83 -31 397 -140 415 -145 8 -2 33 -11 55 -19 60 -22 264 -94 273 -97 4 -1 12
-3 17 -5 81 -29 341 -119 375 -130 25 -8 52 -18 60 -21 8 -3 20 -7 25 -9 6 -1
82 -28 170 -59 88 -31 194 -68 235 -81 41 -14 84 -29 95 -34 23 -10 315 -111
330 -114 6 -1 15 -4 20 -7 6 -4 42 -16 80 -28 39 -13 79 -27 90 -32 48 -22
204 -70 242 -75 46 -6 113 19 113 42 0 8 3 14 8 14 16 0 11 78 -9 142 -11 37
-20 70 -20 73 0 2 -8 25 -19 50 -11 25 -16 45 -13 45 4 0 2 5 -5 12 -7 7 -12
18 -12 24 0 7 -5 25 -12 41 -6 15 -12 33 -13 38 -4 15 -274 827 -282 845 -3 8
-7 20 -8 25 -2 6 -170 512 -375 1125 -205 613 -373 1120 -374 1125 -2 6 -8 23
-14 38 -7 16 -12 32 -12 37 0 5 -5 21 -12 37 -6 15 -12 33 -13 38 -2 6 -119
357 -260 780 -141 424 -259 777 -261 785 -2 8 -37 113 -78 233 -40 120 -74
220 -75 222 -1 3 -4 10 -6 17 -14 38 -86 255 -89 268 -2 8 -29 89 -61 180 -31
91 -58 172 -60 180 -2 8 -8 26 -13 40 -5 14 -11 30 -12 35 -1 6 -4 15 -6 20
-28 80 -84 251 -83 253 1 2 -3 15 -9 30 -6 15 -13 36 -18 47 -4 11 -8 25 -10
30 -1 6 -20 62 -42 125 -21 63 -40 120 -42 125 -1 6 -4 15 -6 20 -11 31 -375
1122 -378 1130 -1 6 -24 75 -50 155 -62 188 -98 236 -146 197z"/>
</g>
</svg>
