<?xml version="1.0" encoding="UTF-8"?>
<svg width="20px" height="20px" viewBox="0 0 20 20" version="1.1" xmlns="http://www.w3.org/2000/svg" xmlns:xlink="http://www.w3.org/1999/xlink">
    <!-- Generator: Sketch 52.3 (67297) - http://www.bohemiancoding.com/sketch -->
    <title>icone</title>
    <desc>Created with Sketch.</desc>
    <g id="Interface-" stroke="none" stroke-width="1" fill="none" fill-rule="evenodd">
        <g id="hub-home-menu-closed" transform="translate(-807.000000, -936.000000)">
            <g id="content" transform="translate(167.000000, 288.000000)">
                <g id="Group-2" transform="translate(358.000000, 622.000000)">
                    <g id="icone" transform="translate(280.000000, 24.000000)">
                        <rect id="Rectangle" x="0" y="0" width="24" height="24"></rect>
                        <path d="M20.985,2.24265 C20.9570527,2.24353319 20.9291767,2.2459784 20.9015025,2.2499742 L14.9996775,2.2499742 C14.7292006,2.24614898 14.4776165,2.38825567 14.3412617,2.62187884 C14.2049069,2.855502 14.2049069,3.1444464 14.3412617,3.37806956 C14.4776165,3.61169273 14.7292006,3.75379942 14.9996775,3.7499742 L19.1891025,3.7499742 L9.9693525,12.9697242 C9.77385512,13.1579345 9.69526265,13.4370626 9.76383816,13.6996264 C9.83241366,13.9621902 10.0374615,14.167238 10.3000253,14.2358135 C10.5625891,14.304389 10.8417172,14.2257966 11.0299275,14.0302992 L20.2496775,4.8105492 L20.2496775,8.9999742 C20.2458523,9.27045114 20.387959,9.52203522 20.6215821,9.65838999 C20.8552053,9.79474476 21.1441497,9.79474476 21.3777729,9.65838999 C21.611396,9.52203522 21.7535027,9.27045114 21.7496775,8.9999742 L21.7496775,3.0952242 C21.7799046,2.87667185 21.7123764,2.65589595 21.5650629,2.49164754 C21.4177494,2.32739913 21.2055936,2.23633896 20.9850525,2.2426992 L20.985,2.24265 Z" id="Path" fill="#9E9E9E"></path>
                        <path d="M10.5,5.25 C8.62815,5.25 7.213575,5.24731522 6.0864,5.374515 C4.9593,5.501715 4.05705,5.769855 3.4116,6.41604 C2.76615,7.062225 2.50095,7.962765 2.3745,9.089415 C2.248005,10.21599 2.249985,11.630415 2.249985,13.50009 C2.249985,15.370215 2.2484325,16.78509 2.377425,17.91219 C2.5064175,19.03929 2.77785,19.940415 3.4248,20.585565 C4.0717425,21.2307075 4.97235,21.49839 6.098175,21.62559 C7.224,21.75279 8.6355,21.750105 10.5,21.750105 C12.364725,21.750105 13.77585,21.75093 14.901825,21.622665 C16.0278,21.49437 16.930125,21.22548 17.576625,20.579715 C18.223125,19.93395 18.492075,19.032915 18.621075,17.90634 C18.750075,16.779765 18.749985,15.36699 18.749985,13.50009 C18.7538102,13.2296131 18.6117035,12.978029 18.3780804,12.8416742 C18.1444572,12.7053194 17.8555128,12.7053194 17.6218896,12.8416742 C17.3882665,12.978029 17.2461598,13.2296131 17.249985,13.50009 C17.249985,15.365565 17.243535,16.75689 17.131335,17.73639 C17.019165,18.715965 16.81254,19.222965 16.5161025,19.51914 C16.2196575,19.815255 15.7127025,20.021325 14.7333525,20.13291 C13.7540025,20.244495 12.3635025,20.2500975 10.4999775,20.2500975 C8.6362275,20.2500975 7.2461025,20.245059 6.2666025,20.1343725 C5.2871025,20.0236875 4.7798775,19.818705 4.4838525,19.523535 C4.1878275,19.228365 3.9807975,18.72096 3.86862,17.740785 C3.7564425,16.76061 3.74997,15.368685 3.74997,13.50006 C3.74997,11.63091 3.7541175,10.238535 3.864225,9.25791 C3.9743325,8.277285 4.1797725,7.77081 4.4736,7.47666 C4.7674275,7.18251 5.273925,6.976515 6.25485,6.8658225 C7.235775,6.75513 8.6289,6.7500975 10.5,6.7500975 C10.7704769,6.75392272 11.022061,6.61181603 11.1584158,6.37819286 C11.2947706,6.1445697 11.2947706,5.8556253 11.1584158,5.62200214 C11.022061,5.38837897 10.7704769,5.24627228 10.5,5.2500975 L10.5,5.25 Z" id="Path" fill="#9E9E9E"></path>
                    </g>
                </g>
            </g>
        </g>
    </g>
</svg>